<mxfile host="app.diagrams.net" modified="2024-04-18T06:52:45.620Z" agent="Mozilla/5.0 (Windows NT 10.0; Win64; x64) AppleWebKit/537.36 (KHTML, like Gecko) Chrome/123.0.0.0 Safari/537.36" version="24.2.5" etag="kWgmvt3K6QrbQUh_vjt2" type="github">
  <diagram name="Page-1" id="CUb-QfJk0qU2F_aChCjE">
    <mxGraphModel>
      <root>
        <mxCell id="0" />
        <mxCell id="1" parent="0" />
      </root>
    </mxGraphModel>
  </diagram>
</mxfile>
